<?xml version="1.0" encoding="UTF-8" standalone="no"?>
<svg
   xmlns:dc="http://purl.org/dc/elements/1.1/"
   xmlns:cc="http://creativecommons.org/ns#"
   xmlns:rdf="http://www.w3.org/1999/02/22-rdf-syntax-ns#"
   xmlns:svg="http://www.w3.org/2000/svg"
   xmlns="http://www.w3.org/2000/svg"
   xmlns:sodipodi="http://sodipodi.sourceforge.net/DTD/sodipodi-0.dtd"
   xmlns:inkscape="http://www.inkscape.org/namespaces/inkscape"
   sodipodi:docname="advantages-icon-3.svg"
   inkscape:version="1.0 (4035a4fb49, 2020-05-01)"
   id="svg7231"
   version="1.1"
   viewBox="0 0 26.458333 26.458334"
   height="100"
   width="100">
  <defs
     id="defs7225" />
  <sodipodi:namedview
     inkscape:document-rotation="0"
     inkscape:window-maximized="1"
     inkscape:window-y="-8"
     inkscape:window-x="-8"
     inkscape:window-height="705"
     inkscape:window-width="1366"
     units="px"
     showgrid="false"
     inkscape:current-layer="layer1"
     inkscape:document-units="mm"
     inkscape:cy="99.115438"
     inkscape:cx="-117.05641"
     inkscape:zoom="0.94191397"
     inkscape:pageshadow="2"
     inkscape:pageopacity="0.0"
     borderopacity="1.0"
     bordercolor="#666666"
     pagecolor="#ffffff"
     id="base" />
  <metadata
     id="metadata7228">
    <rdf:RDF>
      <cc:Work
         rdf:about="">
        <dc:format>image/svg+xml</dc:format>
        <dc:type
           rdf:resource="http://purl.org/dc/dcmitype/StillImage" />
        <dc:title />
      </cc:Work>
    </rdf:RDF>
  </metadata>
  <g
     transform="translate(0,-270.54165)"
     id="layer1"
     inkscape:groupmode="layer"
     inkscape:label="Layer 1">
    <path
       id="path164"
       style="fill:#edf333;fill-opacity:1;fill-rule:nonzero;stroke:none;stroke-width:0.0352777"
       d="m 21.699894,285.13608 c -0.210254,-0.005 -0.384879,-0.17427 -0.389818,-0.37782 -0.0049,-0.20355 0.161573,-0.38241 0.370768,-0.39935 0.20955,-0.0173 0.384175,0.15205 0.389821,0.37748 0.0056,0.22577 -0.160866,0.40463 -0.370771,0.39969 z m -0.60607,-4.44676 c -0.280459,0.1457 -0.629709,0.048 -0.778934,-0.21907 -0.140406,-0.27235 -0.07867,-0.61172 0.185561,-0.78776 0.262114,-0.17462 0.642408,-0.0963 0.8001,0.20567 0.166864,0.29669 0.07373,0.65546 -0.206727,0.80116 z m -0.205672,7.24923 c -0.03598,0.0706 -0.09172,0.12206 -0.160866,0.14182 -0.06914,0.0201 -0.143579,0.0127 -0.207785,-0.0247 -0.06421,-0.037 -0.106186,-0.0967 -0.123474,-0.16122 -0.01693,-0.0649 -0.01728,-0.13935 0.01553,-0.20355 0.0635,-0.12876 0.225074,-0.18345 0.360186,-0.12206 0.135466,0.061 0.187679,0.22648 0.116416,0.36971 z m -0.94615,4.457 -1.160637,1.16063 c -0.01871,0.0183 -0.04233,0.0279 -0.06703,0.0279 -0.02294,0 -0.04551,-0.008 -0.06385,-0.0247 l -0.875948,-0.79869 c -0.03916,-0.0353 -0.04163,-0.0953 -0.0064,-0.13406 0.03528,-0.0392 0.0956,-0.0413 0.134056,-0.006 l 0.05397,0.0494 0.754944,0.68827 1.000479,-1.00048 0.09595,-0.0959 c 0.03704,-0.0374 0.09737,-0.0374 0.134408,0 0.03704,0.037 0.03704,0.097 0,0.13405 z m -1.82245,-15.27528 c -0.280458,0.14569 -0.629353,0.048 -0.778933,-0.21872 -0.140404,-0.2727 -0.07832,-0.61208 0.185915,-0.78811 0.26176,-0.17463 0.641702,-0.0963 0.799748,0.20567 0.16651,0.29669 0.07373,0.65546 -0.20673,0.80116 z m -4.40337,-0.80998 c -0.309388,-0.007 -0.568325,-0.2727 -0.578908,-0.59337 -0.01024,-0.32068 0.26176,-0.57538 0.607835,-0.56797 0.346075,0.007 0.605367,0.27375 0.578908,0.59337 -0.02611,0.31961 -0.29845,0.57432 -0.607835,0.56797 z m -3.593748,0.59126 c -0.1495773,0.2667 -0.4984753,0.36441 -0.7789333,0.21872 -0.280459,-0.1457 -0.373592,-0.50447 -0.206727,-0.80116 0.157691,-0.30198 0.537985,-0.3803 0.799745,-0.20567 0.2642323,0.17603 0.3259673,0.51541 0.1859153,0.78811 z m -2.9742693,3.5687 c -0.149579,0.26705 -0.498475,0.36477 -0.778933,0.21907 -0.280458,-0.1457 -0.37324,-0.50447 -0.206729,-0.80116 0.157691,-0.30198 0.537987,-0.38029 0.799748,-0.20567 0.264231,0.17604 0.325966,0.51541 0.185914,0.78776 z m -0.08149,7.4242 c -0.01693,0.0646 -0.05891,0.12418 -0.123121,0.16122 -0.0642,0.0374 -0.138641,0.0448 -0.208137,0.0247 -0.06915,-0.0198 -0.124531,-0.0713 -0.160867,-0.14182 -0.07091,-0.14323 -0.01871,-0.30868 0.116769,-0.36971 0.135115,-0.0614 0.296685,-0.007 0.360185,0.12206 0.03281,0.0642 0.03246,0.13864 0.01516,0.20356 z m -1.303514,-2.75837 c -0.209902,0.005 -0.376415,-0.17392 -0.370769,-0.39969 0.0056,-0.22543 0.180269,-0.39476 0.389819,-0.37748 0.209198,0.0169 0.375708,0.1958 0.370768,0.39935 -0.005,0.20355 -0.179562,0.37289 -0.389818,0.37782 z m 1.528233,7.67468 c 0.03563,-0.0391 0.09596,-0.0416 0.134056,-0.006 l 0.05398,0.0494 0.755296,0.68792 1.000479,-1.00012 0.09595,-0.0963 c 0.03704,-0.037 0.09737,-0.037 0.134409,0 0.03704,0.037 0.03704,0.0974 0,0.13441 l -1.160637,1.16063 c -0.01871,0.0183 -0.04269,0.0275 -0.06703,0.0275 -0.02294,0 -0.04586,-0.008 -0.06385,-0.0247 l -0.8763,-0.79869 c -0.03881,-0.0353 -0.04128,-0.0952 -0.0064,-0.1337 z m 15.7624653,-9.37401 c -0.03881,-4.19276 -2.828221,-8.9482 -7.7089,-9.92081 -0.0046,-10e-4 -0.0092,-0.002 -0.01376,-0.003 -0.05221,-0.0102 -0.105482,-0.019 -0.158047,-0.0286 -0.05362,-0.01 -0.106537,-0.0194 -0.160512,-0.0279 -0.0049,-10e-4 -0.01024,-0.002 -0.01516,-0.002 -0.485775,-0.0766 -0.9906,-0.11677 -1.514121,-0.11748 -0.524229,7.9e-4 -1.030113,0.0413 -1.516592,0.11783 -0.0042,7.9e-4 -0.0088,10e-4 -0.0127,0.002 -0.05468,0.009 -0.108304,0.019 -0.162631,0.0286 -0.05186,0.01 -0.104423,0.018 -0.155927,0.0282 -0.0053,10e-4 -0.01058,0.002 -0.01588,0.003 -4.8799753,0.97367 -7.6683313,5.72841 -7.7071353,9.92082 0.0035,0.64135 0.06985,1.27529 0.2032,1.88912 0.456845,2.1015 1.545164,4.16631 2.872668,5.89316 l -0.798689,0.87594 2.055635,2.05528 1.8302133,-2.00836 c 0.229304,-0.24412 0.45861,-0.48824 0.687916,-0.73201 -1.7455463,-1.27706 -3.1573623,-3.62832 -3.6025663,-6.17114 -0.617715,-3.7338 2.3241,-7.5117 6.3111933,-7.5752 0.0039,0 0.0074,2.6e-4 0.0113,2.6e-4 0.0035,0 0.0071,-2.6e-4 0.01058,-2.6e-4 3.987094,0.0635 6.929261,3.8414 6.311194,7.5752 -0.445206,2.54282 -1.856669,4.89408 -3.602215,6.17114 0.581025,0.61842 1.16205,1.23719 1.742723,1.85561 l 0.701675,0.76976 2.055284,-2.05528 -0.710848,-0.77964 c 1.321154,-1.72297 2.403475,-3.78072 2.858912,-5.87446 0.13335,-0.61383 0.199671,-1.24777 0.2032,-1.88912" />
  </g>
</svg>
