<?xml version="1.0" encoding="UTF-8" standalone="no"?>
<svg
   xmlns:dc="http://purl.org/dc/elements/1.1/"
   xmlns:cc="http://creativecommons.org/ns#"
   xmlns:rdf="http://www.w3.org/1999/02/22-rdf-syntax-ns#"
   xmlns:svg="http://www.w3.org/2000/svg"
   xmlns="http://www.w3.org/2000/svg"
   xmlns:sodipodi="http://sodipodi.sourceforge.net/DTD/sodipodi-0.dtd"
   xmlns:inkscape="http://www.inkscape.org/namespaces/inkscape"
   sodipodi:docname="advantages-icon-2.svg"
   inkscape:version="1.0 (4035a4fb49, 2020-05-01)"
   id="svg6659"
   version="1.1"
   viewBox="0 0 26.458334 26.458369"
   height="100"
   width="100">
  <defs
     id="defs6653" />
  <sodipodi:namedview
     inkscape:document-rotation="0"
     inkscape:window-maximized="1"
     inkscape:window-y="-8"
     inkscape:window-x="-8"
     inkscape:window-height="705"
     inkscape:window-width="1366"
     units="px"
     showgrid="false"
     inkscape:current-layer="layer1"
     inkscape:document-units="mm"
     inkscape:cy="63.22967"
     inkscape:cx="-79.394105"
     inkscape:zoom="1.7582348"
     inkscape:pageshadow="2"
     inkscape:pageopacity="0.0"
     borderopacity="1.0"
     bordercolor="#666666"
     pagecolor="#ffffff"
     id="base" />
  <metadata
     id="metadata6656">
    <rdf:RDF>
      <cc:Work
         rdf:about="">
        <dc:format>image/svg+xml</dc:format>
        <dc:type
           rdf:resource="http://purl.org/dc/dcmitype/StillImage" />
        <dc:title />
      </cc:Work>
    </rdf:RDF>
  </metadata>
  <g
     transform="translate(0,-270.5411)"
     id="layer1"
     inkscape:groupmode="layer"
     inkscape:label="Layer 1">
    <g
       style="fill:#edf333;fill-opacity:1"
       transform="translate(-26.604197,-24.458696)"
       id="g1684">
      <path
         id="path22"
         style="fill:#edf333;fill-opacity:1;fill-rule:nonzero;stroke:none;stroke-width:0.0352777"
         d="M 48.662822,311.60592 H 46.14328 v 0.22077 h 2.519542 v -0.22077" />
      <path
         id="path24"
         style="fill:#edf333;fill-opacity:1;fill-rule:nonzero;stroke:none;stroke-width:0.0352777"
         d="m 44.683837,311.28454 c 0.03069,-0.0156 0.06244,-0.0296 0.09596,-0.0393 0.157339,-0.0437 0.329142,-0.0172 0.473429,0.0513 0.08502,0.0401 0.161925,0.0955 0.22613,0.16083 0.02046,0.0208 0.07585,0.11603 0.10019,0.1174 0.153105,0.0474 0.306211,0.0943 0.45967,0.14154 0.02716,-0.0755 0.0575,-0.0896 -0.02611,-0.11536 -0.102658,-0.0314 -0.181681,-0.0346 -0.233539,-0.12277 -0.147461,-0.25054 -0.40252,-0.44097 -0.694268,-0.53054 -0.210256,-0.0649 -0.437445,-0.0734 -0.65264,-0.029 0.01799,0.0113 0.03775,0.0208 0.05539,0.0324 0.106539,0.0699 0.225425,0.17046 0.195792,0.33348" />
      <path
         id="path26"
         style="fill:#edf333;fill-opacity:1;fill-rule:nonzero;stroke:none;stroke-width:0.0352777"
         d="m 44.016027,311.28345 c -0.01799,-0.0473 -0.03387,-0.0879 -0.07937,-0.12347 -0.04022,-0.0307 -0.08396,-0.0586 -0.128411,-0.085 -0.07796,-0.007 -0.155575,-0.0181 -0.231775,-0.0317 -0.323851,-0.059 -0.640998,-0.14969 -0.954971,-0.24282 -0.04198,-0.0123 -0.190853,-0.0627 -0.385234,-0.1276 -0.0092,0.0154 -0.01588,0.0317 -0.02646,0.0472 -0.04516,0.0649 -0.103011,0.11603 -0.165453,0.16125 0.789518,0.26914 1.699685,0.55274 2.001664,0.58304 0.02575,0.003 0.05397,0.005 0.08149,0.008 -0.02152,-0.0317 -0.03704,-0.0543 -0.04339,-0.0649 -0.03598,-0.0416 -0.05292,-0.0853 -0.06809,-0.12418" />
      <path
         id="path28"
         style="fill:#edf333;fill-opacity:1;fill-rule:nonzero;stroke:none;stroke-width:0.0352777"
         d="m 44.465114,311.26292 c -0.04939,0.13878 -0.281164,0.0674 -0.231775,-0.0712 0.04974,-0.13822 0.281517,-0.067 0.231775,0.0712 z m -2.154064,-0.77569 c 0.414162,0.13049 0.789871,0.25079 0.922162,0.29944 0.247651,0.0904 0.522818,0.18425 0.729546,0.3448 0.09631,0.0751 0.08008,0.17071 0.154517,0.25425 0.225072,0.32808 0.625123,0.52324 1.040343,0.52324 0.03281,0 0.06562,-10e-4 0.09843,-0.004 0.104422,-0.008 0.207786,-0.0278 0.306212,-0.0606 0.0575,-0.0187 0.109713,-0.0581 0.166511,-0.0581 0.01129,0 0.02293,0.002 0.03457,0.005 0.06597,0.0205 0.131586,0.0409 0.197556,0.061 0.0042,10e-4 0.0081,0.002 0.01164,0.002 0.03457,0 0.03563,-0.0586 0.04727,-0.091 -0.150989,-0.0463 -0.301978,-0.0929 -0.452615,-0.13907 -0.0074,-0.002 -0.01587,-0.004 -0.02505,-0.004 -0.06315,0 -0.1651,0.0463 -0.225425,0.0511 -0.02223,0.002 -0.04445,0.002 -0.06668,0.002 -0.13582,0 -0.272345,-0.0318 -0.387704,-0.0992 -0.100542,-0.0588 -0.239536,-0.17872 -0.218369,-0.29654 0.0254,-0.13794 -0.07056,-0.22546 -0.179212,-0.29644 -0.163689,-0.10693 -0.340078,-0.19579 -0.522464,-0.27132 -0.262115,-0.10901 -0.530226,-0.21968 -0.81386,-0.26099 -0.07056,-0.0106 -0.418395,-0.11328 -0.816681,-0.23043 0.01905,0.0879 0.0187,0.17889 -7.15e-4,0.26818" />
      <path
         id="path30"
         style="fill:#edf333;fill-opacity:1;fill-rule:nonzero;stroke:none;stroke-width:0.0352777"
         d="m 47.59214,315.45149 c -0.147108,-0.086 -1.032229,-0.61902 -1.029759,-0.9754 0.0035,-0.44453 0.335492,-0.85866 1.076679,-1.34193 0.245534,-0.16027 0.662518,-0.35775 1.350082,-0.63969 v -0.48394 h -5.845888 v 0.1827 h -2.366437 c 0.182387,0.20038 0.819504,0.84638 1.652061,1.06123 1.009299,0.26031 1.522944,0.67126 1.526824,1.22163 0.0028,0.35638 -0.882651,0.88939 -1.029759,0.9754 v 0.18175 h 4.666197 v -0.18175" />
      <path
         id="path32"
         style="fill:#edf333;fill-opacity:1;fill-rule:nonzero;stroke:none;stroke-width:0.0352777"
         d="m 35.429758,297.56355 -0.28822,-0.45752 -0.07126,0.0398 0.287867,0.45794 0.07161,-0.0403" />
      <path
         id="path34"
         style="fill:#edf333;fill-opacity:1;fill-rule:nonzero;stroke:none;stroke-width:0.0352777"
         d="m 31.25251,299.27452 0.241301,0.38379 -0.07726,-0.47558 z" />
      <path
         id="path36"
         style="fill:#edf333;fill-opacity:1;fill-rule:nonzero;stroke:none;stroke-width:0.0352777"
         d="m 32.856946,298.99795 1.754366,-0.97787 -0.28822,-0.45791 -1.658763,0.92534 c 0.08326,0.0914 0.142875,0.20384 0.163689,0.33087 l 0.02893,0.17957" />
      <path
         id="path38"
         style="fill:#edf333;fill-opacity:1;fill-rule:nonzero;stroke:none;stroke-width:0.0352777"
         d="m 34.970793,298.59116 c 0.02363,0.0382 0.07655,0.0508 0.117475,0.0289 l 0.604309,-0.32661 c 0.04127,-0.0226 0.05503,-0.0709 0.03104,-0.10939 l -0.365478,-0.58029 -0.287867,-0.45794 -0.3048,-0.48436 c -0.02399,-0.038 -0.07655,-0.0509 -0.117475,-0.0285 l -0.60431,0.3266 c -0.04128,0.0223 -0.05503,0.071 -0.03104,0.10901 l 0.310445,0.4936 0.28822,0.45791 0.359481,0.57108" />
      <path
         id="path40"
         style="fill:#edf333;fill-opacity:1;fill-rule:nonzero;stroke:none;stroke-width:0.0352777"
         d="m 36.737506,318.94121 c 0.07267,0.36022 0.411693,0.61104 0.793046,0.61104 0.04939,0 0.09948,-0.004 0.149578,-0.0127 0.438503,-0.0759 0.727781,-0.46715 0.645584,-0.87351 l -0.963437,-4.77697 -1.648886,-0.0251 1.024115,5.07722" />
      <path
         id="path42"
         style="fill:#edf333;fill-opacity:1;fill-rule:nonzero;stroke:none;stroke-width:0.0352777"
         d="m 32.977596,313.80197 -0.804687,4.88845 c -0.06738,0.40887 0.236008,0.79085 0.676981,0.8533 0.04127,0.006 0.0822,0.009 0.122767,0.009 0.392289,0 0.736601,-0.265 0.797632,-0.6357 l 0.83432,-5.06844 -1.520827,-0.0229 c -0.0381,-7.1e-4 -0.07303,-0.011 -0.106186,-0.0233" />
      <path
         id="path44"
         style="fill:#edf333;fill-opacity:1;fill-rule:nonzero;stroke:none;stroke-width:0.0352777"
         d="m 38.0255,304.7204 -1.737433,-0.83083 -0.220133,0.41769 -0.969082,1.83445 1.535996,0.73794 1.034346,-1.60581 0.356306,-0.55344" />
      <path
         id="path46"
         style="fill:#edf333;fill-opacity:1;fill-rule:nonzero;stroke:none;stroke-width:0.0352777"
         d="m 42.311756,310.21905 c -0.0035,-0.0145 -0.0092,-0.0285 -0.01341,-0.043 -0.04551,-0.15381 -0.147108,-0.29464 -0.303389,-0.38806 l -1.622427,-0.97469 -0.334081,-2.79192 c -0.02646,-0.22433 -0.172861,-0.42125 -0.389115,-0.52462 l -0.897115,-0.42898 -0.391231,0.62093 -1.464382,2.32544 0.246592,1.42353 1.634774,-1.72367 0.186973,1.56535 c 0.02399,0.20133 0.144286,0.38156 0.327378,0.49166 l 1.911705,1.14833 c 0.122414,0.0734 0.259292,0.1083 0.394759,0.1083 0.160867,0 0.316795,-0.0533 0.445559,-0.14633 0.06244,-0.0452 0.120297,-0.0963 0.165453,-0.16125 0.01058,-0.0156 0.01728,-0.0318 0.02646,-0.0472 0.02822,-0.0484 0.04939,-0.0985 0.0635,-0.14926 0.0035,-0.012 0.0085,-0.0244 0.01129,-0.0364 0.0194,-0.0893 0.01976,-0.18027 7.15e-4,-0.26818" />
      <path
         id="path48"
         style="fill:#edf333;fill-opacity:1;fill-rule:nonzero;stroke:none;stroke-width:0.0352777"
         d="m 35.464683,303.77425 0.126294,-0.21774 -2.161119,-1.03325 -0.572912,-3.52531 -0.02893,-0.17957 c -0.02081,-0.12703 -0.08043,-0.2395 -0.163689,-0.33087 -0.157339,-0.17431 -0.403931,-0.27174 -0.663576,-0.23495 -0.397229,0.0554 -0.670632,0.39854 -0.611012,0.76662 l 0.02681,0.16355 0.07726,0.47558 0.553509,3.40611 c 0.03493,0.21414 0.178153,0.39977 0.385587,0.49883 l 1.761775,0.8424 -0.231423,1.95517 1.501424,-2.58657" />
      <path
         id="path50"
         style="fill:#edf333;fill-opacity:1;fill-rule:nonzero;stroke:none;stroke-width:0.0352777"
         d="m 38.293259,305.64782 0.386997,-0.61461 -0.582789,-0.27863 -0.36054,0.5599 -1.071387,1.66398 -0.03387,-0.0163 -1.639714,-0.78726 1.015649,-1.92444 0.208845,-0.39508 -0.553509,-0.26458 -0.135467,0.23343 -1.587855,2.73512 -0.0035,0.0285 -0.0085,-0.008 -1.135946,6.9172 c -0.0254,0.13448 0.05821,0.25658 0.185914,0.30456 0.03316,0.0122 0.06809,0.0226 0.106187,0.0233 l 1.520827,0.0229 1.108782,0.0159 1.648885,0.0251 0.12065,0.002 c 0.176037,0.002 0.308329,-0.13547 0.299862,-0.29393 l -0.722843,-4.16734 -0.248003,-1.42984 0.0074,-0.0116 1.473908,-2.34033" />
      <path
         id="path52"
         style="fill:#edf333;fill-opacity:1;fill-rule:nonzero;stroke:none;stroke-width:0.0352777"
         d="m 41.874311,315.70835 v 3.78601 h 6.707725 v -3.78601 h -6.707725" />
      <path
         id="path54"
         style="fill:#edf333;fill-opacity:1;fill-rule:nonzero;stroke:none;stroke-width:0.0352777"
         d="m 39.994003,302.60331 c 0,1.02376 -0.830088,1.85321 -1.85385,1.85321 -1.02341,0 -1.853497,-0.82945 -1.853497,-1.85321 0,-1.02416 0.830087,-1.85347 1.853497,-1.85347 1.023762,0 1.85385,0.82931 1.85385,1.85347" />
    </g>
  </g>
</svg>
