<?xml version="1.0" encoding="UTF-8" standalone="no"?>
<svg
   xmlns:dc="http://purl.org/dc/elements/1.1/"
   xmlns:cc="http://creativecommons.org/ns#"
   xmlns:rdf="http://www.w3.org/1999/02/22-rdf-syntax-ns#"
   xmlns:svg="http://www.w3.org/2000/svg"
   xmlns="http://www.w3.org/2000/svg"
   xmlns:sodipodi="http://sodipodi.sourceforge.net/DTD/sodipodi-0.dtd"
   xmlns:inkscape="http://www.inkscape.org/namespaces/inkscape"
   sodipodi:docname="advantages-icon-4.svg"
   inkscape:version="1.0 (4035a4fb49, 2020-05-01)"
   id="svg7804"
   version="1.1"
   viewBox="0 0 26.458333 26.458334"
   height="100"
   width="100">
  <defs
     id="defs7798" />
  <sodipodi:namedview
     inkscape:document-rotation="0"
     inkscape:window-maximized="1"
     inkscape:window-y="-8"
     inkscape:window-x="-8"
     inkscape:window-height="705"
     inkscape:window-width="1366"
     units="px"
     showgrid="false"
     inkscape:current-layer="layer1"
     inkscape:document-units="mm"
     inkscape:cy="49.959188"
     inkscape:cx="-121.9761"
     inkscape:zoom="1.3320675"
     inkscape:pageshadow="2"
     inkscape:pageopacity="0.0"
     borderopacity="1.0"
     bordercolor="#666666"
     pagecolor="#ffffff"
     id="base" />
  <metadata
     id="metadata7801">
    <rdf:RDF>
      <cc:Work
         rdf:about="">
        <dc:format>image/svg+xml</dc:format>
        <dc:type
           rdf:resource="http://purl.org/dc/dcmitype/StillImage" />
        <dc:title />
      </cc:Work>
    </rdf:RDF>
  </metadata>
  <g
     transform="translate(0,-270.54165)"
     id="layer1"
     inkscape:groupmode="layer"
     inkscape:label="Layer 1">
    <g
       transform="translate(14.896955,-27.80765)"
       style="fill:#edf333;fill-opacity:1"
       id="g2383">
      <path
         id="path64"
         style="fill:#edf333;fill-opacity:1;fill-rule:nonzero;stroke:none;stroke-width:0.0352777"
         d="m 5.5017489,320.22664 c -0.006,0.77568 0.481188,1.41068 1.082322,1.41068 0.601133,0 1.088319,-0.635 1.081969,-1.41068 l -0.07479,-9.60438 -2.014714,-0.004 -0.07479,9.60794" />
      <path
         id="path66"
         style="fill:#edf333;fill-opacity:1;fill-rule:nonzero;stroke:none;stroke-width:0.0352777"
         d="m 6.5840709,306.42629 c -0.251531,0 -0.480836,0.144 -0.656167,0.3726 h 1.311981 c -0.175331,-0.2286 -0.404284,-0.3726 -0.655814,-0.3726" />
      <path
         id="path68"
         style="fill:#edf333;fill-opacity:1;fill-rule:nonzero;stroke:none;stroke-width:0.0352777"
         d="m 9.0140039,307.33152 h -4.323997 l -2.740025,1.24421 -0.328789,0.14968 c -0.01164,0.006 -0.02399,0.008 -0.03634,0.008 -0.03351,0 -0.06562,-0.0194 -0.08043,-0.052 -0.02011,-0.0443 -7.15e-4,-0.0966 0.04374,-0.1167 l 3.123142,-1.40973 h 4.342694 c 0.04868,0 0.08819,0.0395 0.08819,0.0882 0,0.0488 -0.03951,0.0882 -0.08819,0.0882 z m 0.524581,-0.13614 c -0.05115,-0.13162 -0.178859,-0.2201 -0.318206,-0.2201 h -4.559653 l -3.438877,1.57261 v 0.32855 l 3.438877,1.57218 h 4.5593 c 0.14217,0 0.2667,-0.0864 0.318559,-0.22006 0.378883,-0.97786 0.378883,-2.05493 0,-3.03318" />
      <path
         id="path70"
         style="fill:#edf333;fill-opacity:1;fill-rule:nonzero;stroke:none;stroke-width:0.0352777"
         d="m -9.8751288,306.01714 c 0.6484054,-0.2533 1.5384637,-1.29399 2.3699611,-1.83942 0.395111,-0.25891 1.6612303,-0.48821 2.4235833,-0.86858 -0.3100917,-0.19043 -0.4691946,-0.37151 -0.3887613,-0.69246 0.079022,-0.31927 0.2314223,-0.56734 0.4293306,-0.74853 -2.5057803,-2.26275 -6.2268809,1.07058 -5.6687859,3.50834 0.0032,0.0147 0.0074,0.0267 0.01058,0.0409 0.02893,-0.008 0.0575,-0.0176 0.0889,-0.0176 0.173567,0 0.6847416,0.41067 0.7351889,0.61737" />
      <path
         id="path72"
         style="fill:#edf333;fill-opacity:1;fill-rule:nonzero;stroke:none;stroke-width:0.0352777"
         d="m -5.4703457,302.61668 c -0.080433,0.32095 0.07867,0.50203 0.3887613,0.69246 0.4293304,0.26321 1.1500554,0.54406 1.9452164,1.23652 0.48895,0.42581 0.8124469,1.15895 1.0516309,1.55403 l -7.15e-4,-0.0479 c 0,-0.19445 0.563387,-0.65197 0.745773,-0.65197 0.04657,0 0.09102,0.01 0.131939,0.026 0.09773,-0.96407 -0.415564,-2.36788 -1.028339,-3.01307 -0.9401526,-0.99025 -2.1424193,-1.15218 -2.804936,-0.54459 -0.1979083,0.18119 -0.3503083,0.42926 -0.4293306,0.74853" />
      <path
         id="path74"
         style="fill:#edf333;fill-opacity:1;fill-rule:nonzero;stroke:none;stroke-width:0.0352777"
         d="m -10.368665,308.53138 0.03351,-0.21389 c -0.04657,-0.0464 -0.08184,-0.0871 -0.08678,-0.11038 l -0.352425,-2.47646 c 0,-0.085 0.07373,-0.15449 0.162983,-0.15449 0.110773,0.009 0.547512,0.37606 0.570089,0.47269 l -0.0071,0.42785 0.056092,-0.36047 0.122061,0.24197 0.00529,-0.30797 c 0,-0.01 -0.00741,-0.0222 -0.010231,-0.0331 -0.050447,-0.2067 -0.561622,-0.61737 -0.735189,-0.61737 -0.0314,0 -0.05997,0.01 -0.0889,0.0176 -0.143933,0.0387 -0.25153,0.16331 -0.250825,0.32565 l 0.352425,2.47647 c 0,0.0853 0.09878,0.19858 0.228953,0.31185" />
      <path
         id="path76"
         style="fill:#edf333;fill-opacity:1;fill-rule:nonzero;stroke:none;stroke-width:0.0352777"
         d="m -2.0854431,306.05174 7.14e-4,0.0479 0.0042,0.25893 0.122414,-0.24239 0.05574,0.35705 -0.0071,-0.4184 c 0.02293,-0.10266 0.460022,-0.46961 0.569736,-0.47872 0.09066,0 0.164394,0.0695 0.1651,0.14207 l -0.354189,2.49632 c -0.0056,0.0201 -0.04022,0.0597 -0.08608,0.10474 l 0.03316,0.21305 c 0.129823,-0.11219 0.228248,-0.22257 0.227895,-0.30015 l 0.35489399,-2.50154 c 0,-0.13685 -0.08678,-0.25468 -0.20884399,-0.30484 -0.04092,-0.0165 -0.08537,-0.026 -0.131939,-0.026 -0.182386,0 -0.745772,0.45752 -0.745772,0.65197" />
      <path
         id="path78"
         style="fill:#edf333;fill-opacity:1;fill-rule:nonzero;stroke:none;stroke-width:0.0352777"
         d="m -4.8864984,310.02462 c -0.3358443,0.19152 -0.7122583,0.28716 -1.0886723,0.28716 -0.3764137,0 -0.7528277,-0.0956 -1.088672,-0.28716 -0.042333,-0.0243 -0.056797,-0.0779 -0.032808,-0.1203 0.024342,-0.0423 0.077611,-0.0575 0.1202971,-0.0328 0.051153,0.0289 0.1044223,0.0522 0.1573389,0.0766 h 1.6873361 c 0.052917,-0.0244 0.1061863,-0.0477 0.1576916,-0.0766 0.041981,-0.0247 0.095956,-0.01 0.1202973,0.0328 0.02399,0.0424 0.00953,0.096 -0.032809,0.1203 z m 3.2716613,-1.70533 -0.287514,-1.84601 -0.05574,-0.35705 -0.122414,0.24239 -1.3691306,2.71639 -0.6921497,-0.26998 c -0.5894917,-0.23026 -1.2110863,-0.34558 -1.8333863,-0.34847 -0.6223,0.003 -1.2438944,0.11821 -1.8337387,0.34847 l -0.6917973,0.26998 -1.3694834,-2.71681 -0.122061,-0.24197 -0.056092,0.36047 -0.286809,1.84079 -0.03351,0.21389 -0.315383,2.02142 c -0.02293,0.14841 -0.03493,0.29767 -0.04233,0.44732 -0.0011,0.0254 -0.0042,0.0507 -0.0046,0.0758 -0.0021,0.0698 0.0035,0.1397 0.0049,0.20959 0.01341,0.4258 0.08537,0.84832 0.226483,1.25331 l 0.02611,0.0755 c 0.445558,1.28062 1.4784916,2.27016 2.7774196,2.66002 l 0.5288137,0.15836 c 0.389114,0.1167 0.7902223,0.17526 1.192036,0.17748 0.401814,-0.002 0.8029223,-0.0608 1.1920363,-0.17748 l 0.5288137,-0.15836 c 1.2989277,-0.38986 2.3318605,-1.3794 2.7774195,-2.66002 l 0.02611,-0.0755 c 0.141111,-0.40499 0.213078,-0.8279 0.226484,-1.25373 0.0014,-0.0698 0.0071,-0.13932 0.0049,-0.20917 0,-0.0251 -0.0035,-0.05 -0.0046,-0.0755 -0.0074,-0.14993 -0.0194,-0.29919 -0.04233,-0.4476 l -0.315384,-2.02046 -0.03316,-0.21305" />
      <path
         id="path80"
         style="fill:#edf333;fill-opacity:1;fill-rule:nonzero;stroke:none;stroke-width:0.0352777"
         d="m -7.8988677,307.09519 c 0.2818693,0 0.5101166,-0.22821 0.5101166,-0.51015 0,-0.28184 -0.2282473,-0.51086 -0.5101166,-0.51086 -0.2818694,0 -0.5104694,0.22902 -0.5104694,0.51086 0,0.28194 0.2286,0.51015 0.5104694,0.51015" />
      <path
         id="path82"
         style="fill:#edf333;fill-opacity:1;fill-rule:nonzero;stroke:none;stroke-width:0.0352777"
         d="m -4.0514734,307.09519 c 0.2818694,0 0.5104694,-0.22821 0.5104694,-0.51015 0,-0.28184 -0.2286,-0.51086 -0.5104694,-0.51086 -0.2818693,0 -0.5104693,0.22902 -0.5104693,0.51086 0,0.28194 0.2286,0.51015 0.5104693,0.51015" />
      <path
         id="path84"
         style="fill:#edf333;fill-opacity:1;fill-rule:nonzero;stroke:none;stroke-width:0.0352777"
         d="m -1.1054261,316.50279 h -9.7394889 v -4.27292 l -1.758597,0.77047 v 3.50245 3.44191 1.85677 H 0.65317089 v -1.85677 -3.44191 -3.50245 l -1.75859699,-0.77047 v 4.27292" />
      <path
         id="path86"
         style="fill:#edf333;fill-opacity:1;fill-rule:nonzero;stroke:none;stroke-width:0.0352777"
         d="m -5.131679,309.94814 h -1.6873361 c 0.5344584,0.24514 1.1532307,0.24514 1.6873361,0" />
    </g>
  </g>
</svg>
