<?xml version="1.0" encoding="UTF-8" standalone="no"?>
<svg
   xmlns:dc="http://purl.org/dc/elements/1.1/"
   xmlns:cc="http://creativecommons.org/ns#"
   xmlns:rdf="http://www.w3.org/1999/02/22-rdf-syntax-ns#"
   xmlns:svg="http://www.w3.org/2000/svg"
   xmlns="http://www.w3.org/2000/svg"
   xmlns:sodipodi="http://sodipodi.sourceforge.net/DTD/sodipodi-0.dtd"
   xmlns:inkscape="http://www.inkscape.org/namespaces/inkscape"
   sodipodi:docname="advantages-icon-1.svg"
   inkscape:version="1.0 (4035a4fb49, 2020-05-01)"
   id="svg5586"
   version="1.1"
   viewBox="0 0 26.458331 26.458331"
   height="100"
   width="100">
  <defs
     id="defs5580" />
  <sodipodi:namedview
     inkscape:document-rotation="0"
     inkscape:window-maximized="1"
     inkscape:window-y="-8"
     inkscape:window-x="-8"
     inkscape:window-height="705"
     inkscape:window-width="1366"
     units="px"
     showgrid="false"
     inkscape:current-layer="layer1"
     inkscape:document-units="mm"
     inkscape:cy="122.64939"
     inkscape:cx="-133.08403"
     inkscape:zoom="0.94191398"
     inkscape:pageshadow="2"
     inkscape:pageopacity="0.0"
     borderopacity="1.0"
     bordercolor="#666666"
     pagecolor="#ffffff"
     id="base" />
  <metadata
     id="metadata5583">
    <rdf:RDF>
      <cc:Work
         rdf:about="">
        <dc:format>image/svg+xml</dc:format>
        <dc:type
           rdf:resource="http://purl.org/dc/dcmitype/StillImage" />
        <dc:title />
      </cc:Work>
    </rdf:RDF>
  </metadata>
  <g
     transform="translate(0,-270.5417)"
     id="layer1"
     inkscape:groupmode="layer"
     inkscape:label="Layer 1">
    <g
       transform="translate(-8.459623,-28.089968)"
       style="fill:#edf333;fill-opacity:1"
       id="g2522">
      <path
         d="m 22.884147,309.592 c 0.09349,1.18956 0.148167,2.39747 0.07973,3.18311 l 7.05979,-6.35353 0.484717,-3.69146 -7.624234,6.86188"
         style="fill:#edf333;fill-opacity:1;fill-rule:nonzero;stroke:none;stroke-width:0.0352777"
         id="path146" />
      <path
         d="m 22.566293,306.46497 c 0.08008,0.6604 0.206023,1.76425 0.300214,2.91077 l 7.584724,-6.82589 -2.678642,-0.77047 -5.206296,4.68559"
         style="fill:#edf333;fill-opacity:1;fill-rule:nonzero;stroke:none;stroke-width:0.0352777"
         id="path148" />
      <path
         d="m 17.225591,315.62591 c -0.129823,0.0123 -0.263525,-10e-4 -0.396523,-0.0388 -0.588079,-0.1658 -1.006827,-0.7747 -0.933802,-1.35713 0.01553,-0.12453 0.05503,-0.23883 0.110418,-0.34079 0.141817,-0.26282 0.401108,-0.44168 0.723196,-0.47131 0.129117,-0.0116 0.262113,10e-4 0.395111,0.0392 0.588433,0.16651 1.007533,0.77576 0.93486,1.35819 -0.05115,0.39758 -0.318204,0.69992 -0.698146,0.78917 -0.04375,0.0102 -0.0889,0.0173 -0.135114,0.0215 z m 2.797881,-0.2279 c 0.194027,-1.53141 -0.233892,-5.28672 -0.389821,-6.55355 -0.02222,-0.18097 -0.0388,-0.31115 -0.04763,-0.37677 -0.0071,-0.0578 -0.02822,-0.11641 -0.05433,-0.17356 -0.0071,-0.0166 -0.01659,-0.0328 -0.0254,-0.049 -0.02787,-0.0508 -0.05927,-0.10125 -0.09842,-0.1464 -0.0013,-0.002 -0.0024,-0.004 -0.0042,-0.006 -0.04727,-0.0543 -0.101248,-0.10266 -0.15875,-0.14252 -0.0013,-7.2e-4 -0.0032,-0.001 -0.0042,-0.002 -0.05821,-0.0392 -0.119592,-0.0698 -0.182033,-0.0879 l -2.553052,-0.72107 c -0.05892,-0.0159 -0.120299,-0.0222 -0.18274,-0.0162 -0.02963,0.002 -0.05856,0.009 -0.08713,0.0162 -0.024,0.006 -0.04692,0.0152 -0.06915,0.0247 -0.01199,0.005 -0.02506,0.009 -0.03669,0.0148 -0.02294,0.0116 -0.04339,0.0258 -0.0635,0.0399 -0.0092,0.006 -0.01871,0.0113 -0.02717,0.0183 -0.05644,0.0462 -0.100542,0.10372 -0.126294,0.16934 -0.07161,0.18097 -1.756481,4.45276 -1.982964,6.24169 -0.217665,1.72615 0.263525,6.36517 0.31891,6.8887 0.02893,0.26352 0.264231,0.5408 0.515056,0.61136 l 2.548467,0.72037 c 0.06244,0.018 0.127352,0.024 0.193675,0.0177 0.127706,-0.0113 0.239183,-0.067 0.319969,-0.14605 0.04127,-0.0402 0.07655,-0.084 0.09737,-0.13335 0.191912,-0.45262 1.880306,-4.46652 2.100087,-6.20783"
         style="fill:#edf333;fill-opacity:1;fill-rule:nonzero;stroke:none;stroke-width:0.0352777"
         id="path150" />
      <path
         d="m 22.773374,312.9448 c 0.218723,-1.72791 -0.3683,-6.39516 -0.436033,-6.92186 -0.01304,-0.0995 -0.05115,-0.1972 -0.112184,-0.28998 -0.02294,-0.0339 -0.04798,-0.0674 -0.07514,-0.0984 -0.02328,-0.0261 -0.04833,-0.0505 -0.07373,-0.0737 -0.02257,-0.0205 -0.04692,-0.0399 -0.07161,-0.0572 -0.02328,-0.0162 -0.04692,-0.0314 -0.07091,-0.0448 -0.02506,-0.0138 -0.04939,-0.0254 -0.07408,-0.0353 -0.01693,-0.006 -0.03387,-0.012 -0.05115,-0.0169 l -2.547408,-0.72037 c -0.01093,-0.003 -0.02082,-0.006 -0.03104,-0.008 -0.05115,-0.0109 -0.103717,-0.0141 -0.15734,-0.009 -0.07126,0.006 -0.139345,0.0268 -0.200729,0.0589 -0.03034,0.0162 -0.05856,0.0346 -0.08326,0.0554 l -2.42711,2.16429 c 0.05186,-3.4e-4 0.103717,0.005 0.154517,0.0152 0.01447,0.003 0.02858,0.007 0.04233,0.0109 l 2.547054,0.72037 c 0.02294,0.006 0.04586,0.0141 0.06809,0.0229 0.03034,0.012 0.06173,0.0272 0.09243,0.0437 0.03034,0.0166 0.05962,0.0353 0.08819,0.055 0.03034,0.0215 0.05891,0.0448 0.08714,0.0695 0.03104,0.0279 0.06032,0.0575 0.08784,0.0886 0.03245,0.0374 0.06279,0.0765 0.0896,0.11783 0.0755,0.11359 0.123121,0.23601 0.138641,0.35419 0.0039,0.0328 0.01024,0.0818 0.01834,0.14534 0.12065,0.95497 0.629002,5.16784 0.418394,6.82837 -0.199673,1.58185 -1.583619,4.98722 -2.0066,6.00287 l 2.377368,-2.12126 c 0.04798,-0.043 0.08502,-0.0931 0.108657,-0.14887 0.191558,-0.45191 1.8796,-4.46475 2.099733,-6.20748"
         style="fill:#edf333;fill-opacity:1;fill-rule:nonzero;stroke:none;stroke-width:0.0352777"
         id="path152" />
      <path
         d="m 15.968291,307.18323 v 0 l -0.0013,0.001 c 2.64e-4,-3.4e-4 0.0011,-0.001 0.0013,-0.001"
         style="fill:#edf333;fill-opacity:1;fill-rule:nonzero;stroke:none;stroke-width:0.0352777"
         id="path154" />
    </g>
  </g>
</svg>
