<?xml version="1.0" encoding="UTF-8" standalone="no"?>
<!-- Created with Inkscape (http://www.inkscape.org/) -->

<svg
   xmlns:osb="http://www.openswatchbook.org/uri/2009/osb"
   xmlns:dc="http://purl.org/dc/elements/1.1/"
   xmlns:cc="http://creativecommons.org/ns#"
   xmlns:rdf="http://www.w3.org/1999/02/22-rdf-syntax-ns#"
   xmlns:svg="http://www.w3.org/2000/svg"
   xmlns="http://www.w3.org/2000/svg"
   xmlns:sodipodi="http://sodipodi.sourceforge.net/DTD/sodipodi-0.dtd"
   xmlns:inkscape="http://www.inkscape.org/namespaces/inkscape"
   width="35"
   height="35"
   viewBox="0 0 9.2604223 9.2604225"
   version="1.1"
   id="svg6847"
   sodipodi:docname="forge-icon.svg"
   inkscape:version="0.92.4 (5da689c313, 2019-01-14)">
  <defs
     id="defs6841">
    <linearGradient
       id="linearGradient4830"
       osb:paint="solid">
      <stop
         style="stop-color:#040404;stop-opacity:1;"
         offset="0"
         id="stop4828" />
    </linearGradient>
  </defs>
  <sodipodi:namedview
     id="base"
     pagecolor="#ffffff"
     bordercolor="#666666"
     borderopacity="1.0"
     inkscape:pageopacity="0.0"
     inkscape:pageshadow="2"
     inkscape:zoom="5.6"
     inkscape:cx="-1.00813"
     inkscape:cy="8.8636743"
     inkscape:document-units="mm"
     inkscape:current-layer="layer1"
     showgrid="false"
     inkscape:window-width="656"
     inkscape:window-height="463"
     inkscape:window-x="408"
     inkscape:window-y="152"
     inkscape:window-maximized="0"
     units="mm" />
  <metadata
     id="metadata6844">
    <rdf:RDF>
      <cc:Work
         rdf:about="">
        <dc:format>image/svg+xml</dc:format>
        <dc:type
           rdf:resource="http://purl.org/dc/dcmitype/StillImage" />
        <dc:title></dc:title>
      </cc:Work>
    </rdf:RDF>
  </metadata>
  <g
     inkscape:label="Layer 1"
     inkscape:groupmode="layer"
     id="layer1"
     transform="translate(0,-287.73934)">
    <g
       transform="matrix(0.01373032,0,0,0.01345566,-4.1277491,284.20697)"
       id="g6707"
       style="fill:#ffbf2f;fill-opacity:1">
      <path
         d="m 510.47155,313.22885 c -1.7,0.7 -3.4,1.5 -3.7,1.8 -0.5,0.5 -9.2,97 -9.7,107.4 -0.3,5.3 44.4,128.8 47.8,132.2 2,2.1 3.2,2.3 12.6,2.3 23.5,0 47.4,-7.4 67.7,-20.9 11.2,-7.4 14,-10.5 14,-15.5 0,-2.8 -6.9,-23.2 -22.8,-66.9 l -22.8,-62.8 -38.8,-39.4 c -21.3,-21.7 -39.3,-39.5 -39.9,-39.4 -0.7,0 -2.6,0.6 -4.4,1.2 z"
         id="path136"
         inkscape:connector-curvature="0"
         style="fill:#ffbf2f;fill-opacity:1;stroke:none;stroke-width:0.1" />
      <path
         d="m 870.57155,318.92885 c -4,0.7 -261.9,93.1 -263,94.2 -0.3,0.4 19.2,54.8 19.9,55.5 0.8,0.7 260.1,-88.8 265.1,-91.5 7.4,-4 15.1,-12 18.6,-19.4 7.6,-16 0.5,-32 -16.5,-37.2 -6.4,-2 -17.6,-2.7 -24.1,-1.6 z"
         id="path146"
         inkscape:connector-curvature="0"
         style="fill:#ffbf2f;fill-opacity:1;stroke:none;stroke-width:0.1" />
      <path
         d="m 495.87155,459.92885 c -6,6.7 -8.9,13.1 -9,20 -0.1,12.7 9.1,20.6 26.3,22.6 l 6,0.7 -4,-11.4 c -11.4,-31.7 -13.4,-36.9 -14.1,-36.9 -0.4,0 -2.7,2.2 -5.2,5 z"
         id="path156"
         inkscape:connector-curvature="0"
         style="fill:#ffbf2f;fill-opacity:1;stroke:none;stroke-width:0.1" />
      <path
         d="m 354.37154,611.52885 0.3,20.6 16.00001,7.2 c 42.3,19.2 88.3,44.6 110.3,61 29.2,21.7 41,42 41.2,70.2 0,9.3 -1,12.7 -5.8,20.4 -7.3,11.6 -34.5,35.3 -57.9,50.4 l -7.3,4.7 v 27.9 28 h 32.3 32.2 l 49.8,-8.6 49.8,-8.6 50.2,8.6 50.2,8.6 h 32.3 32.2 v -27.8 -27.8 l -12.7,-8.6 c -26.8,-18.1 -49,-38.6 -55.2,-50.9 -2.5,-5.1 -3.1,-7.4 -3.1,-12.8 0.1,-22.1 12.9,-42 37.4,-57.9 14.9,-9.7 34.7,-17.8 72.7,-29.7 22.1,-6.9 49.2,-22 71.9,-40.1 9.3,-7.4 38,-35.6 39.9,-39.2 l 1.2,-2.2 h -83.6 -83.5 v -7 -7 h -205.5 -205.50001 z m 396.30001,-12.1 c 0,2 -0.8,2 -189.2,2.3 l -189.3,0.2 v 8.9 c 0,9.1 -0.9,11.3 -3.5,9.1 -1.2,-1 -1.5,-3.8 -1.5,-12.1 v -10.9 l 191.8,0.2 c 190.9,0.3 191.7,0.3 191.7,2.3 z m -231.6,255.9 c 0.9,1.1 0.8,1.8 -0.4,3 -1.4,1.4 -4.8,1.6 -24.1,1.6 h -22.4 v 13.4 c 0,10.6 -0.3,13.6 -1.5,14.6 -1.2,1 -1.8,1 -3,0 -1.2,-1 -1.5,-4.2 -1.5,-17 0,-8.6 0.3,-16 0.7,-16.3 0.3,-0.4 12,-0.7 25.8,-0.7 20.4,0 25.5,0.3 26.4,1.4 z m 250.2,0.2 c 1.1,1.4 1,1.8 -0.6,3 -1.5,1.1 -6.7,1.4 -24.2,1.4 h -22.3 v 13.4 c 0,11 -0.3,13.6 -1.6,14.7 -1.4,1.1 -1.8,1 -3,-0.6 -1.1,-1.4 -1.4,-5.7 -1.4,-17 0,-8.4 0.3,-15.5 0.7,-15.8 0.3,-0.4 12,-0.7 25.8,-0.7 22,0 25.4,0.2 26.6,1.6 z"
         id="path160"
         inkscape:connector-curvature="0"
         style="fill:#ffbf2f;fill-opacity:1;stroke:none;stroke-width:0.1" />
    </g>
  </g>
</svg>
